/* XPM */
static char * C:\msys64\home\darkmetal_source\darkplaces\darkplaces_xpm[] = {
"48 48 212 2",
"  	c None",
". 	c #000000",
"+ 	c #434343",
"@ 	c #868686",
"# 	c #FFFFFF",
"$ 	c #BCBCBD",
"% 	c #9C9C9C",
"& 	c #848484",
"* 	c #564A49",
"= 	c #460900",
"- 	c #430300",
"; 	c #450900",
"> 	c #420800",
", 	c #787777",
"' 	c #ABABAB",
") 	c #999999",
"! 	c #E3E3E3",
"~ 	c #D0D0D0",
"{ 	c #725F5E",
"] 	c #5B0F00",
"^ 	c #B6B5B5",
"/ 	c #E8E8E8",
"( 	c #DCDCDC",
"_ 	c #887C7B",
": 	c #9D9C9C",
"< 	c #E6E6E6",
"[ 	c #D5D5D5",
"} 	c #898685",
"| 	c #706C6C",
"1 	c #6C6464",
"2 	c #3E302F",
"3 	c #646161",
"4 	c #757170",
"5 	c #9E9E9E",
"6 	c #FEFEFE",
"7 	c #E7E7E7",
"8 	c #B9B9B9",
"9 	c #CCCCCC",
"0 	c #B8B8B8",
"a 	c #A5A5A5",
"b 	c #7C7C7C",
"c 	c #EAEAEA",
"d 	c #EFEFEF",
"e 	c #E2E2E2",
"f 	c #555555",
"g 	c #786B6B",
"h 	c #580E00",
"i 	c #5D5D5D",
"j 	c #AAAAAA",
"k 	c #E3E3E0",
"l 	c #BDBDBD",
"m 	c #DBDBDB",
"n 	c #DFDFDF",
"o 	c #CECEC8",
"p 	c #696969",
"q 	c #5B5B5B",
"r 	c #AFAFAF",
"s 	c #E4E4E4",
"t 	c #7D7D7D",
"u 	c #635555",
"v 	c #520C00",
"w 	c #550D00",
"x 	c #560E00",
"y 	c #520D00",
"z 	c #A8A8A8",
"A 	c #ECECEC",
"B 	c #7A7A7A",
"C 	c #8C8C8C",
"D 	c #858585",
"E 	c #EDEDED",
"F 	c #CDCDCD",
"G 	c #7E7E7E",
"H 	c #454545",
"I 	c #B5B5AA",
"J 	c #787878",
"K 	c #373737",
"L 	c #666666",
"M 	c #F6F6F6",
"N 	c #414141",
"O 	c #6F6F6F",
"P 	c #838383",
"Q 	c #FAFAFA",
"R 	c #F9F9F9",
"S 	c #D8D8D8",
"T 	c #969696",
"U 	c #B2B2B2",
"V 	c #BCBCBC",
"W 	c #A6A6A6",
"X 	c #6A6A6A",
"Y 	c #9A9A9A",
"Z 	c #6C6C6D",
"` 	c #9B9B9B",
" .	c #939393",
"..	c #777777",
"+.	c #737373",
"@.	c #A7A7A7",
"#.	c #ACACAC",
"$.	c #7B7B7B",
"%.	c #282828",
"&.	c #343434",
"*.	c #F5F5F5",
"=.	c #3D3D3D",
"-.	c #CBCBCB",
";.	c #909090",
">.	c #676767",
",.	c #949494",
"'.	c #606060",
").	c #686868",
"!.	c #616161",
"~.	c #C6C6C6",
"{.	c #C7C7C7",
"].	c #727272",
"^.	c #959595",
"/.	c #B4B4B4",
"(.	c #C8C8C8",
"_.	c #A3A3A3",
":.	c #D6D6D6",
"<.	c #ADADAD",
"[.	c #E1E1E0",
"}.	c #757575",
"|.	c #5F5F5F",
"1.	c #EEEEEE",
"2.	c #BABABA",
"3.	c #B0B0B0",
"4.	c #3C3C3C",
"5.	c #C1C1C1",
"6.	c #C4C4C4",
"7.	c #EBEBEB",
"8.	c #FBFBFB",
"9.	c #FDFDFD",
"0.	c #B3B3B3",
"a.	c #333333",
"b.	c #CFCFCF",
"c.	c #CECECE",
"d.	c #545454",
"e.	c #A9A9A9",
"f.	c #717171",
"g.	c #0E0E0E",
"h.	c #010101",
"i.	c #B7B7B7",
"j.	c #707070",
"k.	c #F3F3F3",
"l.	c #828282",
"m.	c #E5E5E5",
"n.	c #DADADA",
"o.	c #F1F1F1",
"p.	c #2B0303",
"q.	c #C9C9C9",
"r.	c #6E6E6E",
"s.	c #E1E1E1",
"t.	c #444444",
"u.	c #525252",
"v.	c #8E8E8E",
"w.	c #393939",
"x.	c #626262",
"y.	c #404040",
"z.	c #1F1F1F",
"A.	c #8F8F8F",
"B.	c #B6B6B6",
"C.	c #4C4C4C",
"D.	c #4D4D4D",
"E.	c #8B8B8B",
"F.	c #D3D3D3",
"G.	c #C0C0C0",
"H.	c #5A5A5A",
"I.	c #D7D7D1",
"J.	c #E9E9E9",
"K.	c #FCFCFC",
"L.	c #F8F8F8",
"M.	c #EFEFEB",
"N.	c #FCFCF8",
"O.	c #D4D4D4",
"P.	c #B5B5B5",
"Q.	c #6C6C6C",
"R.	c #808080",
"S.	c #4A4A4A",
"T.	c #929292",
"U.	c #E4DEDE",
"V.	c #F4F4F4",
"W.	c #151515",
"X.	c #656565",
"Y.	c #AEAEAE",
"Z.	c #C2C2C2",
"`.	c #D1D1CC",
" +	c #D7D7D7",
".+	c #BBBBBB",
"++	c #CACACA",
"@+	c #C3C3C3",
"#+	c #A2A2A2",
"$+	c #DDDDDD",
"%+	c #4F4F35",
"&+	c #6B6B6B",
"*+	c #A1A1A1",
"=+	c #D1D1D1",
"-+	c #D9D9D9",
";+	c #989898",
">+	c #E0E0E0",
",+	c #BEBEBE",
"'+	c #3E3E3E",
")+	c #818181",
"!+	c #F0F0F0",
"~+	c #595959",
"{+	c #8D8D8D",
"]+	c #767676",
"^+	c #101010",
"/+	c #919191",
"(+	c #5C5C5C",
"_+	c #A4A4A4",
":+	c #9F9F9F",
"<+	c #DEDEDE",
"[+	c #F2F2F2",
"}+	c #F7F7F7",
"                                                                                                ",
"                                                                                                ",
"                                            . + . . @                                           ",
"                              # # # $ % & * = - ; > ; , ' ) # # #                               ",
"                              # # # ! # ~ { ] ] ] ] ] ^ # / # # #                               ",
"                              # # # / # ( _ ] ] ] ] ] : # < # # #                               ",
"                              # # # / # [ } | 1 2 3 4 5 6 7 # # # 8     .                       ",
"                      9 0 a b c / d < e f g ] ] ] h ] i j 7 k e < l m n / [                     ",
"                      # # # o p q p r s t u v w x y v . z A . B C D # # # E                     ",
"                      # # # F G . H I < J i . . . K L i z M . N O P # Q R S                     ",
"                      T U V W X @ O G Y . . . . . . . . Z ` B  . ...+.@.+.                      ",
"                        #.$.%.  # # j . . . . . . . . . . &.# # *.K . 0 .                       ",
"                        =..       -.& H . ;.>. .,.'.).q . !.~.{.    . .                         ",
"                ].9     ^.P         /.(./.W @.z W _.#.W :.<.        & 0 n ( [.}.                ",
"                |.1.2.3.7 4.        5.6.7.6 8.R 9.8.9.! 7 #.G     . O 0.a 5 c @                 ",
"                a.9.s b.c.d.        . e.f.. . . g.. h.+ i..         j.:.d k.1.l.                ",
"                  m.n.o.e p.            e.q.z :.S 2.8 #.            r.m.s.[ :.                  ",
"                                    n.  Y . . . . . . f.m 1.                                    ",
"                                        r . . . . . . t                                         ",
"                                  t.@ u.v.H . . . . . w.x.d.=.                                  ",
"                                y.q.# n m m z.. . . . A.m 6 B.C.                                ",
"                                0.D.^.E.F.# G.. . . . D ) A.H.V                                 ",
"                              # # o.I.v.  J.*.7 7 < s W B ( K.L.#                               ",
"                              # # # s.                  D n.# # #                               ",
"                              d M.N.<                   r.O.6 9.M                               ",
"                              j 0.e.z                     P.` A.r                               ",
"                              ) V 5 Q.                    ]./.% %                               ",
"                              s.# / R.                  S.T.7.# U.                              ",
"                            $.7 # V.0.W.                X.Y.7 # !                               ",
"                          D.Z.~ :.`.W Q.                B 2.-. +5..+u.                          ",
"                          .  +# # # -..                 . d # # # ++.                           ",
"                          .  +6 # # ~..                 . / # # # ++.                           ",
"                          . m m.e [ e..                 . @+( n ( W .                           ",
"                          . M # # # #+.                 . m # # # [ .                           ",
"                          . F.m $+7 <..                 . n Q Q M  +.                           ",
"                          . # K.Q 7.]..                 . e.s A c O..                           ",
"                          %+# # # # G                   . -.# # # s .                           ",
"                          &+T *+j @+L                   . 3.n.=+b.B..                           ",
"                          / 7.d d n.-+                  ;+c.F =+-.e S                           ",
"                          >+:.,+6.-.,+'+                )+@+-.@+6.6.c.                          ",
"                          d !+# # # #                   #.# # # # # #                           ",
"                          ~+).R.L *+b                   {+G.Z.<.j V                             ",
"                          . . . . . ]+                    ^+. . . .                             ",
"                        7 ) q.6.$.Y .                   . !.f Q./+(+_+                          ",
"                        # :+# m $+L..                     6.R 3.# =+<+[+                        ",
"                      -.(.  K.  V.9.                      9 #   # }+  #                         ",
"                                                          e.@+                                  ",
"                                                                                                "};
